<svg width="52" height="20" viewBox="0 0 52 20" fill="none" xmlns="http://www.w3.org/2000/svg">
<path d="M52.0001 5.49933V1.54424C52.0001 0.691381 51.3152 0 50.4705 0H46.553V5.49933H52.0001Z" fill="url(#paint0_linear_7190_3864)"/>
<path d="M46.5532 5.49933V0H45.0514C44.2346 0 43.4517 0.329784 42.8771 0.915895L38.7673 5.10822C38.6252 5.2532 38.7269 5.49933 38.9289 5.49933H46.5532Z" fill="url(#paint1_linear_7190_3864)"/>
<path d="M46.553 5.49902H52.0001V7.05683C52.0001 7.88147 51.6734 8.67187 51.0929 9.25196L46.9404 13.4012C46.7968 13.5447 46.553 13.442 46.553 13.2381V5.49902Z" fill="url(#paint2_linear_7190_3864)"/>
<path d="M26.7352 16.4138L24.0198 9.06718H21.4722L25.3138 18.915C25.5491 19.4715 26.0872 19.9818 26.8745 19.9818C27.5573 19.9818 28.1706 19.5418 28.4337 18.9171L32.2914 9.06718H29.8043L27.0527 16.4138C27.0137 16.4982 26.9817 16.5284 26.8939 16.5284C26.8153 16.5284 26.7735 16.4954 26.7352 16.4138Z" fill="black"/>
<path d="M8.39407 9.01096V16.7786C8.39407 17.1841 8.15323 17.5439 7.72096 17.5439C7.48429 17.5439 7.2156 17.4335 7.0917 16.9746L5.64176 11.2338C5.4747 10.5001 5.05705 9.85005 4.46259 9.39677C3.95445 9.04047 3.51453 8.85986 2.86856 8.85986C1.26896 8.85986 0 10.2675 0 12.1031V19.8588H2.2212V12.1031C2.2212 11.6836 2.44673 11.2991 2.84698 11.2991C3.22496 11.2991 3.41011 11.576 3.51105 11.9049L4.96308 17.6479C5.37029 19.1209 6.51604 19.9768 7.73558 19.9768C9.66791 19.9768 10.6132 18.2642 10.6132 16.7849V9.02923L8.39407 9.01096Z" fill="black"/>
<path fill-rule="evenodd" clip-rule="evenodd" d="M19.498 9.61322C20.9382 10.6076 21.1206 12.2486 21.1206 13.1973V17.3042C21.1206 18.7737 19.9407 19.9649 18.4852 19.9649H15.2707C13.4066 19.9649 11.8961 18.4392 11.8961 16.5579C11.8961 14.6766 13.4073 13.1509 15.2707 13.1509H18.9168C18.9098 12.3926 18.7358 11.7826 18.2548 11.4502C17.7293 11.0876 16.4144 10.7517 13.3349 11.7363L12.6695 9.61533C15.8993 8.58227 18.0926 8.64341 19.4987 9.61393L19.498 9.61322ZM18.9168 15.3759H15.2707C14.6241 15.3759 14.0999 15.905 14.0999 16.5579C14.0999 17.2108 14.6241 17.7399 15.2707 17.7399H18.4852C18.7233 17.7399 18.9168 17.5453 18.9168 17.3042V15.3759Z" fill="black"/>
<path d="M41.0661 14.4222C41.0021 17.1658 38.3786 18.4083 36.3418 17.4033L41.1671 12.5465C42.0824 11.6034 41.9202 10.5908 40.9603 9.89995C40.3011 9.42559 39.3858 8.86338 37.6498 8.86338C34.7909 8.86338 32.2969 11.3561 32.2516 14.3344C32.2342 15.5024 32.5676 16.5923 33.1656 17.4912C34.074 18.8559 35.6708 19.9818 37.7577 19.9818C40.7988 19.9818 43.2644 17.4926 43.2644 14.4215H41.0668L41.0661 14.4222ZM34.4478 14.4222C34.4478 12.5768 35.929 11.0813 37.757 11.0813C38.27 11.0813 38.7558 11.1994 39.1895 11.4095L34.7728 15.8685C34.5647 15.4307 34.4478 14.9401 34.4478 14.4222Z" fill="black"/>
<defs>
<linearGradient id="paint0_linear_7190_3864" x1="53.5131" y1="-1.56288" x2="42.8456" y2="8.42992" gradientUnits="userSpaceOnUse">
<stop offset="0.167296" stop-color="#9D66F3"/>
<stop offset="0.69456" stop-color="#4A01A3"/>
</linearGradient>
<linearGradient id="paint1_linear_7190_3864" x1="48.6449" y1="-1.13746" x2="38.2592" y2="7.5322" gradientUnits="userSpaceOnUse">
<stop stop-color="#FF00B8"/>
<stop offset="0.848958" stop-color="#FFC700"/>
</linearGradient>
<linearGradient id="paint2_linear_7190_3864" x1="53.4036" y1="2.6797" x2="44.2883" y2="13.703" gradientUnits="userSpaceOnUse">
<stop stop-color="#FF00B8"/>
<stop offset="0.848958" stop-color="#FFC700"/>
</linearGradient>
</defs>
</svg>
