<svg xmlns="http://www.w3.org/2000/svg" viewBox="0 0 50 32" width="50" height="32">
  <!-- Fondo blanco con borde -->
  <rect width="50" height="32" rx="4" fill="#FFFFFF" stroke="#E5E7EB" stroke-width="1"/>

  <!-- Esquina superior izquierda: finder pattern -->
  <rect x="5" y="3" width="10" height="10" rx="1.5" fill="none" stroke="#111827" stroke-width="1.2"/>
  <rect x="7.5" y="5.5" width="5" height="5" rx="0.5" fill="#111827"/>

  <!-- Esquina superior derecha: finder pattern -->
  <rect x="35" y="3" width="10" height="10" rx="1.5" fill="none" stroke="#111827" stroke-width="1.2"/>
  <rect x="37.5" y="5.5" width="5" height="5" rx="0.5" fill="#111827"/>

  <!-- Esquina inferior izquierda: finder pattern -->
  <rect x="5" y="19" width="10" height="10" rx="1.5" fill="none" stroke="#111827" stroke-width="1.2"/>
  <rect x="7.5" y="21.5" width="5" height="5" rx="0.5" fill="#111827"/>

  <!-- Módulos de datos (zona derecha-inferior) -->
  <rect x="19" y="3"  width="2" height="2" rx="0.3" fill="#111827"/>
  <rect x="22" y="3"  width="2" height="2" rx="0.3" fill="#111827"/>
  <rect x="25" y="3"  width="2" height="2" rx="0.3" fill="#111827"/>
  <rect x="28" y="3"  width="2" height="2" rx="0.3" fill="#111827"/>
  <rect x="31" y="3"  width="2" height="2" rx="0.3" fill="#111827"/>

  <rect x="19" y="6"  width="2" height="2" rx="0.3" fill="#111827"/>
  <rect x="25" y="6"  width="2" height="2" rx="0.3" fill="#111827"/>
  <rect x="31" y="6"  width="2" height="2" rx="0.3" fill="#111827"/>

  <rect x="22" y="9"  width="2" height="2" rx="0.3" fill="#111827"/>
  <rect x="25" y="9"  width="2" height="2" rx="0.3" fill="#111827"/>
  <rect x="28" y="9"  width="2" height="2" rx="0.3" fill="#111827"/>

  <rect x="19" y="12" width="2" height="2" rx="0.3" fill="#111827"/>
  <rect x="25" y="12" width="2" height="2" rx="0.3" fill="#111827"/>

  <!-- Línea de tiempo horizontal -->
  <rect x="19" y="15" width="2" height="2" rx="0.3" fill="#111827"/>
  <rect x="22" y="15" width="2" height="2" rx="0.3" fill="#111827"/>
  <rect x="25" y="15" width="2" height="2" rx="0.3" fill="#111827"/>
  <rect x="28" y="15" width="2" height="2" rx="0.3" fill="#111827"/>

  <!-- Zona inferior -->
  <rect x="19" y="19" width="2" height="2" rx="0.3" fill="#111827"/>
  <rect x="22" y="19" width="2" height="2" rx="0.3" fill="#111827"/>
  <rect x="28" y="19" width="2" height="2" rx="0.3" fill="#111827"/>
  <rect x="31" y="19" width="2" height="2" rx="0.3" fill="#111827"/>
  <rect x="34" y="19" width="2" height="2" rx="0.3" fill="#111827"/>
  <rect x="37" y="19" width="2" height="2" rx="0.3" fill="#111827"/>
  <rect x="40" y="19" width="2" height="2" rx="0.3" fill="#111827"/>
  <rect x="43" y="19" width="2" height="2" rx="0.3" fill="#111827"/>

  <rect x="19" y="22" width="2" height="2" rx="0.3" fill="#111827"/>
  <rect x="25" y="22" width="2" height="2" rx="0.3" fill="#111827"/>
  <rect x="31" y="22" width="2" height="2" rx="0.3" fill="#111827"/>
  <rect x="37" y="22" width="2" height="2" rx="0.3" fill="#111827"/>
  <rect x="43" y="22" width="2" height="2" rx="0.3" fill="#111827"/>

  <rect x="22" y="25" width="2" height="2" rx="0.3" fill="#111827"/>
  <rect x="28" y="25" width="2" height="2" rx="0.3" fill="#111827"/>
  <rect x="34" y="25" width="2" height="2" rx="0.3" fill="#111827"/>
  <rect x="40" y="25" width="2" height="2" rx="0.3" fill="#111827"/>

  <rect x="19" y="28" width="2" height="2" rx="0.3" fill="#111827"/>
  <rect x="25" y="28" width="2" height="2" rx="0.3" fill="#111827"/>
  <rect x="31" y="28" width="2" height="2" rx="0.3" fill="#111827"/>
  <rect x="37" y="28" width="2" height="2" rx="0.3" fill="#111827"/>
  <rect x="43" y="28" width="2" height="2" rx="0.3" fill="#111827"/>
</svg>
